<svg width="32" height="32" viewBox="0 0 32 32" fill="none" xmlns="http://www.w3.org/2000/svg">
<circle opacity="0.4" cx="15.9677" cy="15.9677" r="15.9677" fill="#9A61FF"/>
<g clip-path="url(#clip0_43_1038)">
<path d="M12.4959 11.4022C12.5399 12.0549 12.6499 12.6929 12.8259 13.3015L11.9459 14.1815C11.6452 13.3015 11.4546 12.3702 11.3886 11.4022H12.4959ZM19.7266 20.2169C20.3499 20.3929 20.9879 20.5029 21.6332 20.5469V21.6395C20.6652 21.5735 19.7339 21.3829 18.8466 21.0895L19.7266 20.2169ZM13.1999 9.93555H10.6332C10.2299 9.93555 9.8999 10.2655 9.8999 10.6689C9.8999 17.5549 15.4806 23.1355 22.3666 23.1355C22.7699 23.1355 23.0999 22.8055 23.0999 22.4022V19.8429C23.0999 19.4395 22.7699 19.1095 22.3666 19.1095C21.4572 19.1095 20.5699 18.9629 19.7486 18.6915C19.6752 18.6622 19.5946 18.6549 19.5212 18.6549C19.3306 18.6549 19.1472 18.7282 19.0006 18.8675L17.3872 20.4809C15.3119 19.4175 13.6106 17.7235 12.5546 15.6482L14.1679 14.0349C14.3732 13.8295 14.4319 13.5435 14.3512 13.2869C14.0799 12.4655 13.9332 11.5855 13.9332 10.6689C13.9332 10.2655 13.6032 9.93555 13.1999 9.93555Z" fill="#CBADFF"/>
<path d="M12.4959 11.4022C12.5399 12.0549 12.6499 12.6929 12.8259 13.3015L11.9459 14.1815C11.6452 13.3015 11.4546 12.3702 11.3886 11.4022H12.4959M19.7266 20.2169C20.3499 20.3929 20.9879 20.5029 21.6332 20.5469V21.6395C20.6652 21.5735 19.7339 21.3829 18.8466 21.0895L19.7266 20.2169M13.1999 9.93555H10.6332C10.2299 9.93555 9.8999 10.2655 9.8999 10.6689C9.8999 17.5549 15.4806 23.1355 22.3666 23.1355C22.7699 23.1355 23.0999 22.8055 23.0999 22.4022V19.8429C23.0999 19.4395 22.7699 19.1095 22.3666 19.1095C21.4572 19.1095 20.5699 18.9629 19.7486 18.6915C19.6752 18.6622 19.5946 18.6549 19.5212 18.6549C19.3306 18.6549 19.1472 18.7282 19.0006 18.8675L17.3872 20.4809C15.3119 19.4175 13.6106 17.7235 12.5546 15.6482L14.1679 14.0349C14.3732 13.8295 14.4319 13.5435 14.3512 13.2869C14.0799 12.4655 13.9332 11.5855 13.9332 10.6689C13.9332 10.2655 13.6032 9.93555 13.1999 9.93555Z" stroke="#CBADFF" stroke-width="0.4"/>
</g>
<defs>
<clipPath id="clip0_43_1038">
<rect width="18.0968" height="18.0968" fill="white" transform="translate(7.45166 7.45154)"/>
</clipPath>
</defs>
</svg>
